<?xml version="1.0" encoding="utf-8"?>
<!-- Generator: Adobe Illustrator 21.1.0, SVG Export Plug-In . SVG Version: 6.00 Build 0)  -->
<svg version="1.1" id="Слой_1" xmlns="http://www.w3.org/2000/svg" xmlns:xlink="http://www.w3.org/1999/xlink" x="0px" y="0px"
	 viewBox="0 0 100 100" style="enable-background:new 0 0 100 100;" xml:space="preserve">
<style type="text/css">
	.st0{fill:#808080;}
</style>
<path id="path2987" inkscape:connector-curvature="0" sodipodi:nodetypes="ssssssscccssssssssssscscssssssscsssssssssssscsccssssscsssscsscsssssccsssssssssscsssssscssssscscsssssssssscsss" class="st0" d="
	M81.3,80.2c2.6-0.4,4.6-1,6.6-2.1c8-4.2,11.8-13.7,8.9-22.4c-1.5-4.5-4.9-8.4-9.1-10.5c-1.8-0.9-3.3-1.4-5.4-1.8
	c-1.4-0.3-2-0.3-3.7-0.2c-3.2,0.1-5.5,0.8-8.3,2.2l-1.5,0.8L66.8,44l-1.9-2.1l2-5.9c1.1-3.2,2-6,2.1-6.1c0.1-0.2,0.8-0.3,3.2-0.6
	c2-0.2,3.3-0.4,3.6-0.6c1-0.5,1.3-1.8,0.6-2.8c-0.6-0.9-0.6-0.9-9.4,0.1c-4.4,0.5-8.2,1-8.4,1.1c-1.1,0.3-1.5,1.9-0.8,2.9
	c0.6,0.8,1.1,0.9,4.1,0.5c1.4-0.2,2.7-0.3,2.8-0.3c0.1,0-3,9.6-3.2,9.8c0,0-25.4-6.7-25.6-6.7c0,0,0.4-0.9,0.8-1.9l0.9-1.9L37,29.1
	c-0.3-0.2-1.6-0.9-2.8-1.5c-1.2-0.6-2.3-1.3-2.5-1.4c-0.2-0.1-0.5-1-0.9-2.8c-0.7-2.9-0.9-3.3-1.8-3.6c-1.2-0.3-2.3,0.4-2.5,1.5
	c0,0.3,0.3,1.9,0.7,3.9l0.8,3.4l2.1,1.1c1.2,0.6,2.2,1.2,2.3,1.2c0.1,0-5.6,12.2-5.8,12.5c-0.1,0.1-0.5,0-0.9-0.1
	c-2-0.5-3.4-0.7-5.6-0.6c-1.2,0.1-2.6,0.2-3.3,0.4c-7.2,1.6-12.6,7-14.3,14.3c-0.4,1.8-0.5,5.1-0.2,6.9c1.4,7.7,7.3,13.8,14.7,15.2
	c7.2,1.4,14.4-1.4,18.7-7.2c2.3-3.2,3.6-7,3.6-11.1c0-6.2-3-11.9-7.9-15.3c-0.7-0.5-1.3-0.9-1.3-1c0-0.3,2.6-5.6,2.8-5.5
	c0.1,0.1,17.5,20.7,21.9,26c0,0,1-0.1,2-0.2l1.9-0.1c1-0.1,1.9-0.1,2,0c0.1,0.1,0.2,0.6,0.4,1.2c2.1,8.1,9.7,13.8,18.3,13.7
	C80.3,80.2,81.1,80.2,81.3,80.2L81.3,80.2z M75.3,75.9c-4-1-7.5-3.8-9.3-7.5c-0.6-1.1-1.2-2.8-1.2-3.2c0-0.3,0-0.3,10-0.9
	c4.4-0.3,8.5-0.6,9-0.6l1-0.1l-1.8-1.8c-1-1-4-4.3-6.8-7.3l-5-5.5l0.5-0.3c4.2-2.3,9.6-2.5,13.9-0.3c3.9,1.9,6.5,5.2,7.7,9.6
	c0.5,1.8,0.5,5.4,0,7.2c-1.5,5.6-5.7,9.6-11.4,10.9C80.2,76.5,77.3,76.4,75.3,75.9L75.3,75.9z M18.7,76c-5-0.7-9.5-4.1-11.4-8.7
	c-0.9-2.1-1.2-3.5-1.2-5.9c0-1.8,0.1-2.4,0.4-3.6c1.9-7,8-11.5,15.2-11.1c1.4,0.1,2.8,0.3,3.1,0.6c0.1,0.1-1.4,3.2-3.2,7.1
	c-3.6,7.6-3.7,7.8-3,8.8c0.7,1,2.4,1,3.1-0.1c0.2-0.3,1.8-3.6,3.6-7.4l3.2-6.9l0.4,0.2c0.8,0.5,2.4,1.9,3.2,2.9
	c1.5,1.8,2.6,4,3.1,6.4c0.4,1.9,0.3,5.2-0.2,7c-1.2,4.6-4.6,8.3-8.9,9.9C23.9,76,21.2,76.3,18.7,76L18.7,76z M58.3,61.4
	c0-0.1,1.2-3.5,2.6-7.5s2.5-7.4,2.6-7.5c0.1-0.1,0.5,0.3,1.2,1c1,1.2,1.1,1.2,0.8,1.5c-3.2,4-4.6,7.3-4.9,11.3l-0.1,1.2l-0.7,0.1
	C58.3,61.6,58.2,61.6,58.3,61.4L58.3,61.4z M64.4,60.7c0-0.7,0.4-2.9,0.7-3.8c0.4-1.3,1.3-2.9,2.2-4.2c0.5-0.6,0.9-1.2,0.9-1.2
	c0.1,0,1.9,1.9,4.1,4.4c3.8,4.1,4,4.4,3.6,4.5c-0.7,0.1-10,0.7-10.8,0.7C64.4,61.1,64.4,61.1,64.4,60.7L64.4,60.7z M45.5,48.4
	c-5.1-6-9.2-11-9.2-11c0.1-0.1,23.7,6.2,23.8,6.3c0,0-1,3.4-2.4,7.5c-2.7,8-2.8,8.3-2.9,8.2C54.8,59.4,50.6,54.5,45.5,48.4
	L45.5,48.4z"/>
</svg>
