<?xml version="1.0" encoding="utf-8"?>
<!-- Generator: Adobe Illustrator 21.1.0, SVG Export Plug-In . SVG Version: 6.00 Build 0)  -->
<svg version="1.1" id="Слой_1" xmlns="http://www.w3.org/2000/svg" xmlns:xlink="http://www.w3.org/1999/xlink" x="0px" y="0px"
	 viewBox="0 0 100 100" style="enable-background:new 0 0 100 100;" xml:space="preserve">
<style type="text/css">
	.st0{fill:#808080;}
</style>
<path class="st0" d="M93.4,76.6c0.5-0.2,0.9-0.4,1.3-0.8c2.4-2.2,2-7.9,0.3-10.4c-1.9-2.7-5.3-3.6-8.2-4.5c-2.7-0.9-5.4-1.5-8.2-2.1
	c-0.5-0.1-0.9,0.1-1.2,0.5l-2.1,3.7c-0.4,0.8-1.4,1-2.1,0.6c-0.8-0.4-1-1.4-0.6-2.1l1.2-2.1c0.4-0.6,0-1.5-0.7-1.7
	c-0.7-0.2-1.4-0.4-2-0.6c-0.4-0.1-0.9,0-1.2,0.4l-2.9,3.8c-0.5,0.7-1.5,0.8-2.2,0.3c-0.7-0.5-0.8-1.5-0.3-2.2l2.1-2.7
	c0.4-0.5,0.2-1.3-0.4-1.6c-0.7-0.4-1.3-0.8-1.9-1.2c-0.4-0.3-1.1-0.3-1.4,0.1l-4.7,4.7c-0.6,0.6-1.6,0.6-2.2,0v0
	c-0.6-0.6-0.6-1.6,0-2.2l4.6-4.6c0.4-0.4,0.4-1,0.1-1.5c-0.4-0.5-0.7-1-1.1-1.5c-0.3-0.5-1-0.7-1.5-0.4l-7.1,4.1
	c-0.8,0.4-1.7,0.2-2.1-0.6c-0.4-0.8-0.2-1.7,0.6-2.1l8.2-4.8c-0.1-0.2-0.2-0.5-0.3-0.7c-0.2-0.6-0.4-1.3-0.6-2
	c-0.2-0.6-0.8-0.9-1.4-0.7l-9.9,2.8c-0.8,0.2-1.7-0.2-1.9-1.1c-0.2-0.8,0.2-1.7,1.1-1.9l10.1-2.9c0.6-0.2,0.9-0.7,0.8-1.3
	c-0.7-3.4-1.2-6.8-1.5-10.3c1.4-0.7,2.4-2.2,2.4-3.9c0-2-1.3-3.6-3.1-4.2c-0.2-2.1-0.4-4.2-0.6-6.2c-0.2-1.5-0.4-3.1-1.3-4.3
	c-0.9-1.2-2.3-1.9-3.7-2.5c-6.5-2.7-13.9-3.6-20.8-2.4c-3,0.5-6.1,1.5-8.4,3.6c-2.3,2.1-3.4,5.2-4.4,8.1c-5.4,16.6-7.4,34-9.4,51.3
	c-0.2,2-0.9,5.1-0.5,7.4c0.1,0.5,0.2,1,0.4,1.5c0.4,0.8,1,1.3,1.7,1.6c-1.7,2.1-2.8,4.8-2.8,7.7C3.3,91.6,8.7,97,15.3,97
	c5.5,0,10.1-3.7,11.6-8.6c1.5,5,6.1,8.6,11.6,8.6c5.5,0,10.1-3.7,11.6-8.6c1.5,5,6.1,8.6,11.6,8.6c5.5,0,10.1-3.7,11.6-8.6
	c1.5,5,6.1,8.6,11.6,8.6c6.7,0,12.1-5.4,12.1-12.1C96.7,81.7,95.5,78.8,93.4,76.6z M75.1,77.6c-0.9,1.2-1.6,2.5-2,3.9
	c-0.4-1.4-1.1-2.7-1.9-3.8C72.5,77.6,73.8,77.6,75.1,77.6z M51.7,78c-0.7,1.1-1.3,2.2-1.7,3.5c-0.4-1.2-0.9-2.4-1.7-3.4
	C49.5,78,50.6,78,51.7,78z M38.5,20.4h13.2c1.5,0,2.7,1.2,2.7,2.7c0,1.5-1.2,2.7-2.7,2.7H38.5c-1.5,0-2.7-1.2-2.7-2.7
	C35.8,21.6,37,20.4,38.5,20.4z M27.4,78.1c0.4,0,0.7,0,1.1,0c-0.7,1-1.2,2.2-1.6,3.4c-0.4-1.2-0.9-2.4-1.6-3.4
	C26,78.1,26.7,78.1,27.4,78.1z M15.3,90.7c-3.2,0-5.8-2.6-5.8-5.8c0-3.2,2.6-5.8,5.8-5.8s5.8,2.6,5.8,5.8
	C21.1,88.1,18.5,90.7,15.3,90.7z M38.4,90.7c-3.2,0-5.8-2.6-5.8-5.8c0-3.2,2.6-5.8,5.8-5.8c3.2,0,5.8,2.6,5.8,5.8
	C44.2,88.1,41.6,90.7,38.4,90.7z M61.6,90.7c-3.2,0-5.8-2.6-5.8-5.8c0-3.2,2.6-5.8,5.8-5.8s5.8,2.6,5.8,5.8
	C67.3,88.1,64.7,90.7,61.6,90.7z M84.7,90.7c-3.2,0-5.8-2.6-5.8-5.8c0-3.2,2.6-5.8,5.8-5.8s5.8,2.6,5.8,5.8
	C90.5,88.1,87.9,90.7,84.7,90.7z"/>
</svg>
