<?xml version="1.0" encoding="utf-8"?>
<!-- Generator: Adobe Illustrator 21.1.0, SVG Export Plug-In . SVG Version: 6.00 Build 0)  -->
<svg version="1.1" id="Слой_1" xmlns="http://www.w3.org/2000/svg" xmlns:xlink="http://www.w3.org/1999/xlink" x="0px" y="0px"
	 viewBox="0 0 100 100" style="enable-background:new 0 0 100 100;" xml:space="preserve">
<style type="text/css">
	.st0{fill:#808080;}
</style>
<path class="st0" d="M6.1-37c0.5-0.2,0.9-0.4,1.3-0.8c2.4-2.2,2-7.9,0.3-10.4c-1.9-2.7-5.3-3.6-8.2-4.5c-2.7-0.9-5.4-1.5-8.2-2.1
	c-0.5-0.1-0.9,0.1-1.2,0.5l-2.1,3.7c-0.4,0.8-1.4,1-2.1,0.6c-0.8-0.4-1-1.4-0.6-2.1l1.2-2.1c0.4-0.6,0-1.5-0.7-1.7
	c-0.7-0.2-1.4-0.4-2-0.6c-0.4-0.1-0.9,0-1.2,0.4l-2.9,3.8c-0.5,0.7-1.5,0.8-2.2,0.3s-0.8-1.5-0.3-2.2l2.1-2.7
	c0.4-0.5,0.2-1.3-0.4-1.6c-0.7-0.4-1.3-0.8-1.9-1.2c-0.4-0.3-1.1-0.3-1.4,0.1l-4.7,4.7c-0.6,0.6-1.6,0.6-2.2,0v0
	c-0.6-0.6-0.6-1.6,0-2.2l4.6-4.6c0.4-0.4,0.4-1,0.1-1.5c-0.4-0.5-0.7-1-1.1-1.5c-0.3-0.5-1-0.7-1.5-0.4l-7.1,4.1
	c-0.8,0.4-1.7,0.2-2.1-0.6c-0.4-0.8-0.2-1.7,0.6-2.1l8.2-4.8c-0.1-0.2-0.2-0.5-0.3-0.7c-0.2-0.6-0.4-1.3-0.6-2
	c-0.2-0.6-0.8-0.9-1.4-0.7l-9.9,2.8c-0.8,0.2-1.7-0.2-1.9-1.1c-0.2-0.8,0.2-1.7,1.1-1.9l10.1-2.9c0.6-0.2,0.9-0.7,0.8-1.3
	c-0.7-3.4-1.2-6.8-1.5-10.3c1.4-0.7,2.4-2.2,2.4-3.9c0-2-1.3-3.6-3.1-4.2c-0.2-2.1-0.4-4.2-0.6-6.2c-0.2-1.5-0.4-3.1-1.3-4.3
	c-0.9-1.2-2.3-1.9-3.7-2.5c-6.5-2.7-13.9-3.6-20.8-2.4c-3,0.5-6.1,1.5-8.4,3.6c-2.3,2.1-3.4,5.2-4.4,8.1c-5.4,16.6-7.4,34-9.4,51.3
	c-0.2,2-0.9,5.1-0.5,7.4c0.1,0.5,0.2,1,0.4,1.5c0.4,0.8,1,1.3,1.7,1.6c-1.7,2.1-2.8,4.8-2.8,7.7c0,6.7,5.4,12.1,12.1,12.1
	c5.5,0,10.1-3.7,11.6-8.6c1.5,5,6.1,8.6,11.6,8.6c5.5,0,10.1-3.7,11.6-8.6c1.5,5,6.1,8.6,11.6,8.6c5.5,0,10.1-3.7,11.6-8.6
	c1.5,5,6.1,8.6,11.6,8.6c6.7,0,12.1-5.4,12.1-12.1C9.4-32,8.1-34.9,6.1-37z M-12.2-36.1c-0.9,1.2-1.6,2.5-2,3.9
	c-0.4-1.4-1.1-2.7-1.9-3.8C-14.8-36-13.5-36.1-12.2-36.1z M-35.7-35.7c-0.7,1.1-1.3,2.2-1.7,3.5c-0.4-1.2-0.9-2.4-1.7-3.4
	C-37.9-35.6-36.8-35.6-35.7-35.7z M-48.8-93.3h13.2c1.5,0,2.7,1.2,2.7,2.7c0,1.5-1.2,2.7-2.7,2.7h-13.2c-1.5,0-2.7-1.2-2.7-2.7
	C-51.5-92.1-50.3-93.3-48.8-93.3z M-59.9-35.5c0.4,0,0.7,0,1.1,0c-0.7,1-1.2,2.2-1.6,3.4c-0.4-1.2-0.9-2.4-1.6-3.4
	C-61.4-35.6-60.6-35.5-59.9-35.5z M-72-23c-3.2,0-5.8-2.6-5.8-5.8s2.6-5.8,5.8-5.8s5.8,2.6,5.8,5.8S-68.8-23-72-23z M-48.9-23
	c-3.2,0-5.8-2.6-5.8-5.8s2.6-5.8,5.8-5.8c3.2,0,5.8,2.6,5.8,5.8S-45.7-23-48.9-23z M-25.8-23c-3.2,0-5.8-2.6-5.8-5.8
	s2.6-5.8,5.8-5.8s5.8,2.6,5.8,5.8S-22.6-23-25.8-23z M-2.7-23c-3.2,0-5.8-2.6-5.8-5.8s2.6-5.8,5.8-5.8s5.8,2.6,5.8,5.8
	S0.5-23-2.7-23z"/>
<g>
	<path class="st0" d="M30.6,47.1c0.4,9.2,2.3,17.9,4.4,26.8c-3.3,0.2-6.4,0.4-9.7,0.6c-0.2-2.5-0.4-4.9-0.5-7.2
		c-0.1-4.6-0.2-9.1-0.3-13.7c0-3.3,1.6-5.4,4.4-6.2C29.5,47.3,30,47.2,30.6,47.1z"/>
	<g>
		<path class="st0" d="M93.2,73.2C93.2,73.2,93.2,73.2,93.2,73.2c-2.8,3.8-8.3,3.9-13,3.6c-8.7-0.5-17.3-0.9-26-1.4
			c-3.4-0.2-7.2-0.6-9.3-3.2c-1.1-1.4-1.5-3.2-1.9-5c-0.3-1.8-0.6-3.6-0.7-5.4c-0.2-1.8-0.3-3.6-0.3-5.4c0-1.8,0.1-3.6,0.2-5.4
			c0.1-0.8,0.1-1.6,0.2-2.4c0.1-0.6,0.3-1.4,0.9-1.5c0.9-0.2,1.2,1.3,1,2.2c-0.8,4.4-0.9,8.9-0.2,13.3c0.1,0.5,0.2,1.1,0.6,1.5
			c0.3,0.3,0.8,0.4,1.3,0.5c4,0.4,7.7-1.9,11.5-3.3c0.4-0.2,1-0.3,1.4-0.1c0.5,0.2,0.7,0.9,0.9,1.4c0.8,3.2,1.6,6.5,2.4,9.7
			c0.1,0.5,0.2,1,0.6,1.3c0.4,0.4,1,0.4,1.5,0.4c3.2,0.2,6.3,0.4,9.5,0.6c-1.9-7.3-3.8-14.6-5.7-22c-0.3-1.2-0.7-2.5-1.5-3.4
			c-2-2-5.3-1-8.1-0.5c-0.4,0.1-0.8,0.1-1-0.2c-0.1-0.2-0.2-0.4-0.2-0.6c-0.6-3.7-1-7.8,1.4-10.7c1.5-1.8,3.8-2.6,6-3.3
			c1.7-0.5,3.4-0.9,5.1-1.2c1.7-0.3,3.5-0.6,5.2-0.7c1.8-0.1,3.5-0.2,5.3-0.2c0.9,0,1.8,0,2.6,0.1c0.5,0,1.2,0.2,1.7-0.1
			c0.5-0.2,0.6-0.8,0.8-1.4c0.2-0.9,0.4-1.8,0.5-2.7c0.2-1.1,0.3-2.3,0.4-3.5c-8-0.7-16.1-0.5-24.2,0.4c-0.6,0.1-1.2,0.1-1.7-0.1
			c-0.9-0.4-1.2-1.5-1.7-2.3c-0.9-1.7-2.9-2.8-4.9-2.7c-1,0.1-2,0.4-3,0.5c-1.4,0.1-2.9-0.3-4.3-0.4c-4.3-0.1-8.3,4.2-7.7,8.5
			c0.1,1.1,0.5,2.2,0.1,3.2c-0.3,0.7-0.8,1.2-1.3,1.7c-5,5.3-5.7,13.3-4.7,20.5c1.1,7.2,3.6,14.1,4.1,21.4c-5.2,0.5-10.3,1-15.5,1.4
			c-6.1,0.6-13.1,0.9-17.5-3.3c-0.5,0.5-0.9,1-1.4,1.5c1.5,2.4,4.2,3.8,6.9,4.3c2.7,0.5,5.6,0.3,8.4,0.1c5.7-0.4,11.4-0.9,17.1-1.3
			c0.7-0.1,1.4-0.1,2,0.1c0.7,0.2,1.2,0.7,1.8,1c1.9,1.2,4.4,1.2,6.3,0c0.6-0.4,1.2-0.9,1.9-1.2c0.6-0.2,1.3-0.2,2-0.2
			c10.2,0.2,20.4,0.7,30.6,1.4c2.8,0.2,5.6,0.4,8.3-0.2c2.7-0.5,5.4-1.9,6.9-4.3C94.4,74.3,93.8,73.8,93.2,73.2z M51.1,28.4
			c2.6,1,5.1,2,7.9,3c-0.6,0.9-1.2,1.9-1.9,2.9c-0.2-0.1-0.3-0.1-0.5-0.2c-0.1-0.5-0.3-1-0.4-1.4c-0.3-1.2-0.8-1.5-1.9-0.9
			c0,0-0.1,0-0.1,0.1c-1.1,0.7-2.2,1.2-3.4,0.1C50,31.3,50.2,29.6,51.1,28.4z"/>
		<path class="st0" d="M87.1,31.2c0.3-1.9,0.5-3.6,0.8-5.2c0-0.2,0.5-0.6,0.8-0.6c3.5-0.2,6.7,0.6,9.4,2.9c0.7,0.6,0.8,1.2,0.4,1.9
			c-0.4,0.7-0.9,1-1.8,0.7c-0.9-0.3-1.8-0.6-2.7-0.6c-0.6,0-1.3,0.3-1.9,0.6C90.5,31.7,88.8,31.3,87.1,31.2z"/>
	</g>
</g>
</svg>
