<?xml version="1.0" encoding="utf-8"?>
<!-- Generator: Adobe Illustrator 21.1.0, SVG Export Plug-In . SVG Version: 6.00 Build 0)  -->
<svg version="1.1" id="Слой_1" xmlns="http://www.w3.org/2000/svg" xmlns:xlink="http://www.w3.org/1999/xlink" x="0px" y="0px"
	 viewBox="0 0 100 100" style="enable-background:new 0 0 100 100;" xml:space="preserve">
<style type="text/css">
	.st0{fill:#808080;}
</style>
<path class="st0" d="M96.8,55.6c-1.5-4.5-4.9-8.4-9.1-10.5c-1.8-0.9-3.3-1.4-5.4-1.8c-1.4-0.3-2-0.3-3.7-0.2
	c-3.2,0.1-5.5,0.8-8.3,2.2l-1.5,0.8L66.8,44l-1.9-2.1l2-5.9c1.1-3.2,2-6,2.1-6.1c0.1-0.2,0.8-0.3,3.2-0.6c2-0.2,3.3-0.4,3.6-0.6
	c1-0.5,1.3-1.8,0.6-2.8c-0.6-0.9-0.6-0.9-9.4,0.1c-4.4,0.5-8.2,1-8.4,1.1c-1.1,0.3-1.5,1.9-0.8,2.9c0.6,0.8,1.1,0.9,4.1,0.5
	c1.4-0.2,2.7-0.3,2.8-0.3c0.1,0-3,9.6-3.2,9.8c0,0-25.4-6.7-25.6-6.7c0,0,0.4-0.9,0.8-1.9l0.9-1.9L37,29.1c-0.3-0.2-1.6-0.9-2.8-1.5
	s-2.3-1.3-2.5-1.4c-0.2-0.1-0.5-1-0.9-2.8c-0.7-2.9-0.9-3.3-1.8-3.6c-1.2-0.3-2.3,0.4-2.5,1.5c0,0.3,0.3,1.9,0.7,3.9l0.8,3.4
	l2.1,1.1c1.2,0.6,2.2,1.2,2.3,1.2c0.1,0-5.6,12.2-5.8,12.5c-0.1,0.1-0.5,0-0.9-0.1c-2-0.5-3.4-0.7-5.6-0.6c-1.2,0.1-2.6,0.2-3.3,0.4
	c-7.2,1.6-12.6,7-14.3,14.3c-0.4,1.8-0.5,5.1-0.2,6.9c1.4,7.7,7.3,13.8,14.7,15.2c7.2,1.4,14.4-1.4,18.7-7.2c2.3-3.2,3.6-7,3.6-11.1
	c0-6.2-3-11.9-7.9-15.3c-0.7-0.5-1.3-0.9-1.3-1c0-0.3,2.6-5.6,2.8-5.5c0.1,0.1,17.5,20.7,21.9,26c0,0,1-0.1,2-0.2l1.9-0.1
	c1-0.1,1.9-0.1,2,0c0.1,0.1,0.2,0.6,0.4,1.2c2.1,8.1,9.7,13.8,18.3,13.7c0.8,0,1.6,0,1.8-0.1v0c2.6-0.4,4.6-1,6.6-2.1
	C95.9,73.9,99.7,64.3,96.8,55.6z M32.1,51.8c1.5,1.8,2.6,4,3.1,6.4c0.4,1.9,0.3,5.2-0.2,7c-1.2,4.6-4.6,8.3-8.9,9.9
	c-2.3,0.9-5,1.2-7.5,0.8c-5-0.7-9.5-4.1-11.4-8.7c-0.9-2.1-1.2-3.5-1.2-5.9c0-1.8,0.1-2.4,0.4-3.6c1.9-7,8-11.5,15.2-11.1
	c1.4,0.1,2.8,0.3,3.1,0.6c0.1,0.1-1.4,3.2-3.2,7.1c-3.6,7.6-3.7,7.8-3,8.8c0.7,1,2.4,1,3.1-0.1c0.2-0.3,1.8-3.6,3.6-7.4l3.2-6.9
	l0.4,0.2C29.7,49.4,31.3,50.8,32.1,51.8z M54.8,59.5c0,0-4.2-5-9.3-11v0c-5.1-6-9.2-11-9.2-11c0.1-0.1,23.7,6.2,23.8,6.3
	c0,0-1,3.4-2.4,7.5C55,59.3,54.9,59.6,54.8,59.5z M60.6,60.2l-0.1,1.2l-0.7,0.1c-1.5,0.1-1.5,0.1-1.5-0.1v0c0-0.1,1.2-3.5,2.6-7.5
	c1.4-4,2.5-7.4,2.6-7.5c0.1-0.1,0.5,0.3,1.2,1c1,1.2,1.1,1.2,0.8,1.5C62.3,52.9,60.9,56.1,60.6,60.2z M64.4,60.7
	c0-0.7,0.4-2.9,0.7-3.8c0.4-1.3,1.3-2.9,2.2-4.2c0.5-0.6,0.9-1.2,0.9-1.2c0.1,0,1.9,1.9,4.1,4.4c3.8,4.1,4,4.4,3.6,4.5
	c-0.7,0.1-10,0.7-10.8,0.7C64.4,61.1,64.4,61.1,64.4,60.7z M93.5,65.3c-1.5,5.6-5.7,9.6-11.4,10.9c-1.8,0.4-4.7,0.3-6.7-0.2
	c-4-1-7.5-3.8-9.3-7.5c-0.6-1.1-1.2-2.8-1.2-3.2c0-0.3,0-0.3,10-0.9c4.4-0.3,8.5-0.6,9-0.6l1-0.1l-1.8-1.8c-1-1-4-4.3-6.8-7.3
	l-5-5.5l0.5-0.3c4.2-2.3,9.6-2.5,13.9-0.3c3.9,1.9,6.5,5.2,7.7,9.6C94,59.8,94,63.5,93.5,65.3z"/>
</svg>
