<?xml version="1.0" encoding="utf-8"?>
<!-- Generator: Adobe Illustrator 21.1.0, SVG Export Plug-In . SVG Version: 6.00 Build 0)  -->
<svg version="1.1" id="Слой_1" xmlns="http://www.w3.org/2000/svg" xmlns:xlink="http://www.w3.org/1999/xlink" x="0px" y="0px"
	 viewBox="0 0 100 100" style="enable-background:new 0 0 100 100;" xml:space="preserve">
<style type="text/css">
	.st0{fill:#FFFFFF;}
</style>
<g>
	<path class="st0" d="M64.5,50c0-8-6.5-14.5-14.5-14.5c-8,0-14.5,6.5-14.5,14.5c0,8,6.5,14.5,14.5,14.5C58,64.5,64.5,58,64.5,50z
		 M50,62c-6.6,0-12-5.4-12-12c0-6.6,5.4-12,12-12c6.6,0,12,5.4,12,12C62,56.6,56.6,62,50,62z"/>
	<path class="st0" d="M33.1,50c0-6.7,4-12.5,9.7-15.2c-12.6,1.5-24,6.8-32.1,15.2c8.2,8.4,19.6,13.8,32.1,15.2
		C37.1,62.5,33.1,56.7,33.1,50z"/>
	<path class="st0" d="M66.9,50c0,6.7-4,12.5-9.7,15.2c12.6-1.5,24-6.8,32.1-15.2c-8.2-8.4-19.6-13.8-32.1-15.2
		C62.9,37.5,66.9,43.3,66.9,50z"/>
	<circle class="st0" cx="46.7" cy="46.6" r="7"/>
	<path class="st0" d="M98.1,48.3C86.6,35.3,69,27.8,50,27.8c-19,0-36.6,7.5-48.1,20.5L0.4,50l1.5,1.7c11.5,13,29,20.5,48.1,20.5
		c19,0,36.6-7.5,48.1-20.5l1.5-1.7L98.1,48.3z M94.4,51.6C83.7,63.6,67.6,70.5,50,70.5c-17.6,0-33.7-6.9-44.4-18.9L4.3,50l1.4-1.6
		c10.6-12,26.8-18.9,44.4-18.9c17.6,0,33.7,6.9,44.4,18.9l1.4,1.6L94.4,51.6z"/>
</g>
</svg>
