<?xml version="1.0" encoding="utf-8"?>
<!-- Generator: Adobe Illustrator 21.1.0, SVG Export Plug-In . SVG Version: 6.00 Build 0)  -->
<svg version="1.1" id="Слой_1" xmlns="http://www.w3.org/2000/svg" xmlns:xlink="http://www.w3.org/1999/xlink" x="0px" y="0px"
	 viewBox="0 0 100 100" style="enable-background:new 0 0 100 100;" xml:space="preserve">
<style type="text/css">
	.st0{fill-rule:evenodd;clip-rule:evenodd;fill:#FFFFFF;}
	.st1{fill:#FFFFFF;}
</style>
<g>
	<path class="st0" d="M50,3.3C23.6,3.3,2.1,24.7,2.1,51.2c0,21.2,13.7,39.1,32.8,45.4c2.4,0.4,3.3-1,3.3-2.3c0-1.1,0-4.9-0.1-8.9
		c-13.3,2.9-16.1-5.7-16.1-5.7c-2.2-5.5-5.3-7-5.3-7c-4.3-3,0.3-2.9,0.3-2.9c4.8,0.3,7.3,4.9,7.3,4.9c4.3,7.3,11.2,5.2,13.9,4
		c0.4-3.1,1.7-5.2,3-6.4C30.6,71.1,19.4,67,19.4,48.7c0-5.2,1.9-9.5,4.9-12.9c-0.5-1.2-2.1-6.1,0.5-12.7c0,0,4-1.3,13.2,4.9
		c3.8-1.1,7.9-1.6,12-1.6c4.1,0,8.2,0.6,12,1.6c9.1-6.2,13.2-4.9,13.2-4.9c2.6,6.6,1,11.5,0.5,12.7c3.1,3.4,4.9,7.6,4.9,12.9
		c0,18.4-11.2,22.4-21.9,23.6c1.7,1.5,3.2,4.4,3.2,8.9c0,6.4-0.1,11.6-0.1,13.1c0,1.3,0.9,2.8,3.3,2.3c19-6.3,32.7-24.3,32.7-45.4
		C97.9,24.7,76.4,3.3,50,3.3z"/>
	<path class="st1" d="M20.2,72.1c-0.1,0.2-0.5,0.3-0.8,0.1c-0.3-0.2-0.5-0.5-0.4-0.7c0.1-0.2,0.5-0.3,0.8-0.1
		C20.2,71.5,20.4,71.8,20.2,72.1L20.2,72.1z M19.7,71.6"/>
	<path class="st1" d="M22.2,74.2c-0.2,0.2-0.7,0.1-1-0.2c-0.3-0.3-0.4-0.8-0.1-1c0.2-0.2,0.7-0.1,1,0.2C22.4,73.6,22.4,74,22.2,74.2
		L22.2,74.2z M21.7,73.7"/>
	<path class="st1" d="M24.1,77c-0.3,0.2-0.8,0-1.1-0.4c-0.3-0.4-0.3-0.9,0-1.1c0.3-0.2,0.8,0,1.1,0.4C24.4,76.3,24.4,76.8,24.1,77
		L24.1,77z M24.1,77"/>
	<path class="st1" d="M26.7,79.6c-0.3,0.3-0.8,0.2-1.2-0.2c-0.4-0.4-0.5-0.9-0.3-1.2c0.3-0.3,0.8-0.2,1.2,0.2
		C26.8,78.8,26.9,79.4,26.7,79.6L26.7,79.6z M26.7,79.6"/>
	<path class="st1" d="M30.2,81.2c-0.1,0.4-0.7,0.5-1.2,0.4c-0.5-0.2-0.9-0.6-0.8-1c0.1-0.4,0.7-0.6,1.2-0.4
		C30,80.4,30.3,80.8,30.2,81.2L30.2,81.2z M30.2,81.2"/>
	<path class="st1" d="M34.2,81.5c0,0.4-0.4,0.7-1,0.7c-0.6,0-1-0.3-1-0.7c0-0.4,0.4-0.7,1-0.7C33.7,80.8,34.2,81.1,34.2,81.5
		L34.2,81.5z M34.2,81.5"/>
	<path class="st1" d="M37.8,80.9c0.1,0.4-0.3,0.8-0.9,0.9c-0.6,0.1-1.1-0.1-1.1-0.5c-0.1-0.4,0.3-0.8,0.9-0.9
		C37.2,80.2,37.7,80.5,37.8,80.9L37.8,80.9z M37.8,80.9"/>
</g>
</svg>
