<?xml version="1.0" encoding="utf-8"?>
<!-- Generator: Adobe Illustrator 21.1.0, SVG Export Plug-In . SVG Version: 6.00 Build 0)  -->
<svg version="1.1" id="Слой_1" xmlns="http://www.w3.org/2000/svg" xmlns:xlink="http://www.w3.org/1999/xlink" x="0px" y="0px"
	 viewBox="0 0 100 100" style="enable-background:new 0 0 100 100;" xml:space="preserve">
<style type="text/css">
	.st0{fill:#808080;}
</style>
<path class="st0" d="M43,87L43,87c0,0,2.3-3.5,3-9.4c0.7-5.9,1.3-6.8,5-7.8c0,0,4.4-1.7,6.4-4.2c1.9-2.3,7-7.6-1.9-17.2l26.2-26.2
	c0.5,0.2,1,0.1,1.4-0.2c0,0,0.6-0.5,1.4-1.2l0.6,0.6l-0.3,0.3c0.5,0.5,1.4,0.6,1.8,0.1c0.5-0.5,0.5-1.3-0.1-1.8l-0.4,0.4l-0.5-0.5
	c0.9-0.7,1.8-1.5,2.8-2.4l0.7,0.7l-0.3,0.3c0.5,0.5,1.4,0.6,1.8,0.1c0.5-0.5,0.5-1.3-0.1-1.8l-0.4,0.4l-0.6-0.6
	c1.1-0.9,2-1.7,2.8-2.4l0.8,0.8l-0.3,0.3c0.5,0.5,1.4,0.6,1.8,0.1c0.5-0.5,0.5-1.3-0.1-1.8l-0.4,0.4l-0.7-0.7
	c0.1-0.1,0.2-0.2,0.3-0.3c0.8-1,1-2.8,0.6-3.6c-0.3-0.7-1.4-1.7-1.9-2.2c-0.5-0.5-1.6-1.6-2.2-1.9c-0.9-0.3-2.6-0.2-3.6,0.7
	c-0.1,0.1-0.2,0.1-0.3,0.3l-0.6-0.6l0.4-0.4c-0.5-0.5-1.4-0.6-1.8-0.1C84,5.5,84,6.3,84.5,6.9l0.3-0.3l0.7,0.7
	C84.9,8,84,9,83.2,10.1l-0.5-0.5L83,9.2c-0.5-0.5-1.4-0.6-1.8-0.1c-0.5,0.5-0.5,1.3,0.1,1.8l0.3-0.3l0.6,0.6c-0.8,1-1.6,2-2.3,2.9
	l-0.5-0.5l0.4-0.4c-0.5-0.5-1.4-0.6-1.8-0.1c-0.5,0.5-0.5,1.3,0.1,1.8l0.3-0.3l0.6,0.6c-0.7,0.9-1.1,1.5-1.1,1.5
	c-0.3,0.3-0.4,0.9-0.3,1.3L51.3,44.4C41.9,36,36.8,41,34.5,42.9c-2.4,2-4.2,6.4-4.2,6.4c-1.1,3.6-1.9,4.2-7.8,5
	c-5.9,0.7-9.4,3-9.4,3l0,0c-1.1,0.6-2.1,1.4-3,2.3c-7.1,7.1-7.8,17.9,2.4,28.1c10.1,10.1,21,9.5,28.1,2.4C41.5,89.1,42.3,88.1,43,87
	z M35.9,64.3c-2.2-2.2-2.2-5.8,0-8c2.2-2.2,5.8-2.2,8,0s2.2,5.8,0,8C41.7,66.6,38.1,66.6,35.9,64.3z"/>
</svg>
