<?xml version="1.0" encoding="utf-8"?>
<!-- Generator: Adobe Illustrator 21.1.0, SVG Export Plug-In . SVG Version: 6.00 Build 0)  -->
<svg version="1.1" xmlns="http://www.w3.org/2000/svg" xmlns:xlink="http://www.w3.org/1999/xlink" x="0px" y="0px"
	 viewBox="0 0 400 400" style="enable-background:new 0 0 400 400;" xml:space="preserve">
<style type="text/css">
	.st0{display:none;}
	.st1{opacity:0.5;}
	.st2{fill:#FFFFFF;}
	.st3{opacity:0.5;fill:#FFFFFF;}
	.st4{fill:#CCCCCC;}
</style>
<g id="Слой_1" class="st0">
	
		<image style="display:inline;overflow:visible;opacity:0.21;" width="500" height="505" xlink:href="prod67256_Silver_NE_01.jpg"  transform="matrix(0.7762 0 0 0.7762 6.4406 4.5)">
	</image>
</g>
<g id="Слой_3">
</g>
<g id="Слой_2">
	<g class="st1">
		<path class="st2" d="M199.8,171.8c-15.5,0-28.2,12.6-28.2,28.2c0,15.5,12.6,28.2,28.2,28.2S228,215.5,228,200
			C228,184.5,215.4,171.8,199.8,171.8z M199.8,223.9c-13.2,0-23.9-10.7-23.9-23.9c0-13.2,10.7-23.9,23.9-23.9s23.9,10.7,23.9,23.9
			C223.8,213.2,213,223.9,199.8,223.9z"/>
		<path class="st2" d="M283.1,168.9c-3.2-4.2-8.3-3.6-11.3-2c-12.2,9.9-32.5,15.8-41.8,10c-12.3-7.7-15.3-38.4-23.3-61.2
			c-1.6-3.7-6-6.3-10.8-4.6c-5,1.8-6,6.8-5.4,10.1c5.6,14.7,5,35.8-3.4,42.9c-11.1,9.3-41.4,2.7-65.5,3.3c-3.9,0.4-7.7,3.8-7.5,8.8
			c0.1,5.2,4.6,7.8,7.9,8.2c15.7-0.8,35.7,6.3,39.8,16.5c5.4,13.4-10.2,40.1-17.1,63.2c-0.8,3.9,1.2,8.5,6,10c5,1.5,8.8-1.9,10.3-5
			c4-15.2,17-32,28-32.7c14.4-1,35,22.1,54.8,35.8c3.4,2,8.5,1.6,11.4-2.6c3-4.3,0.9-9-1.6-11.3c-13.2-8.5-25.1-26.1-22.4-36.7
			c3.5-14,31.8-26.4,51-41C285.1,177.9,286.2,172.9,283.1,168.9z M199.8,232.4c-17.9,0-32.4-14.5-32.4-32.4
			c0-17.9,14.5-32.4,32.4-32.4s32.4,14.5,32.4,32.4C232.2,217.9,217.7,232.4,199.8,232.4z"/>
	</g>
	<path class="st3" d="M321.3,193.7c-2.3-3.3-6.3-8.8-8.2-11.6c-2-2.8,2.5-6.5,5.5-8.6c-4.3-19.3-13.1-36.9-25.4-51.6
		c-3.8-0.9-9.8-2.5-12.4-3.6c-2.5-1.1-1-5.7,0.4-8.8c-14-12.7-31-22.2-49.8-27.2c-3.8,1.2-10.5,3.3-13.7,4.3c-3.3,1-5.5-4.5-6.5-7.9
		c-3.8-0.4-7.7-0.6-11.7-0.6c-15.8,0-30.9,3-44.7,8.5c-2,3.2-5.7,9-7.6,11.2c-1.8,2.1-6-1.1-8.6-3.4c-16.6,9.6-30.7,22.9-41.1,38.9
		c0,4-0.1,11.1-0.2,14.5c0,3.5-6.1,3.8-9.7,3.7c-6.5,14.9-10,31.3-10,48.5c0,2.5,0.1,5,0.2,7.5c2.4,2.8,7,8.4,8.5,11
		c1.5,2.4-3,5.5-6,7.2c4.1,19,12.5,36.3,24.3,50.9c3.8,1.3,10.5,3.5,13.7,4.6c3.3,1.1,1.8,7,0.6,10.3c14.3,12.6,31.7,22,50.8,26.8
		c3.5-1.4,9.9-3.9,12.7-4.6c2.7-0.6,4.2,4.3,4.9,7.6c4,0.4,8.1,0.6,12.3,0.6c15.4,0,30.1-2.9,43.6-8c2.4-3.2,6.5-8.8,8.6-11.5
		c2-2.7,7,0.4,9.9,2.6c16.8-10,31-23.8,41.4-40.3c-0.3-3.9-0.6-10.1-0.4-12.9c0.2-2.7,5-2.7,8.4-2.3c6.7-15.1,10.5-31.8,10.5-49.5
		C321.5,197.9,321.4,195.8,321.3,193.7z M304.8,161.6c1.3-0.9,2.4-0.3,3,0.5c0.9,1.2,0,10.5-1.1,11.4c-1.1,0.9-3.8-1.3-4.6-3
		C301.3,168.8,303.5,162.5,304.8,161.6z M289.5,151.8c1.2-4.5,1.3-10.6,1.7-11.7c0.4-1.1,1.3-1.5,2.2-1.5c1.7-0.1,6.9,6.6,6.4,15.1
		c-0.4,8.5-9.8,12.2-11,12.5s-3.8-1.4-3.8-3.4C285.1,160.7,288.3,156.3,289.5,151.8z M263.8,108.3c0.5-1.5,1.9-1.6,2.7-1.4
		c1.5,0.4,6,8.6,5.6,10c-0.4,1.4-3.8,1.1-5.5,0.2C265,116.2,263.3,109.8,263.8,108.3z M246.9,98.6c0.3-1.5,1.5-1.9,2.5-1.8
		c1.5,0.2,7.4,7.4,7.3,8.8c-0.1,1.4-3.6,1.7-5.3,1.1C249.5,106.2,246.6,100.1,246.9,98.6z M230.7,89.8c1.5-0.1,8.6,6,8.7,7.4
		c0.1,1.4-3.2,2.3-5.1,2c-1.8-0.3-5.7-5.7-5.7-7.3S229.8,89.8,230.7,89.8z M197.1,85.6c1.4-0.5,10,3.3,10.5,4.6s-2.4,3.2-4.2,3.4
		c-1.8,0.3-7.1-3.8-7.6-5.3C195.3,86.8,196.2,85.9,197.1,85.6z M170.3,92c0.4-1.6,8.4-4.5,16.3-1.5c8,3.1,8.6,13.1,8.5,14.3
		c-0.1,1.2-2.5,3.2-4.4,2.6c-1.9-0.7-5.1-5.1-9-7.6c-3.9-2.6-9.7-4.5-10.6-5.2C170.1,93.8,170,92.9,170.3,92z M131.9,107.8
		c0.9-1.2,10-3,11.2-2.3c1.2,0.8-0.2,4-1.5,5.3c-1.3,1.3-8,1-9.3,0C131.2,109.9,131.4,108.6,131.9,107.8z M117,121
		c0.6-1.4,9.4-4.7,10.6-4.2c1.3,0.6,0.5,3.9-0.6,5.4c-1.1,1.5-7.7,2.4-9.1,1.6C116.6,123.2,116.6,121.8,117,121z M104.5,136.6
		c0.4-1.5,8.4-6.3,9.8-6c1.4,0.3,1.2,3.8,0.4,5.5c-0.8,1.7-7.2,3.7-8.7,3.2C104.5,138.8,104.3,137.5,104.5,136.6z M97.7,158.7
		c1.4-0.1,2.3,3.3,2,5.1s-5.8,5.6-7.4,5.6s-2.1-1.2-2.2-2.1C90.1,165.7,96.3,158.8,97.7,158.7z M88,194.7c-1.4-0.9-1.7-9.3,3.7-16
		c5.4-6.6,15.1-4.1,16.2-3.6c1.1,0.5,2.3,3.4,1.1,5c-1.2,1.6-6.4,3.2-10.1,6.2c-3.6,3-7.3,7.9-8.3,8.5
		C89.7,195.4,88.8,195.2,88,194.7z M94.2,236.6c-1.3,0.9-2.5,0.2-3-0.5c-0.9-1.2,0.2-10.5,1.3-11.4c1.1-0.9,3.7,1.4,4.5,3.1
		C97.8,229.4,95.5,235.7,94.2,236.6z M102.1,254.4c-1.1,1.1-2.4,0.6-3.1,0c-1.1-1-1.6-10.4-0.7-11.4c0.9-1.1,3.9,0.7,5,2.2
		C104.5,246.7,103.3,253.3,102.1,254.4z M113.1,270.5c-0.9,1.3-2.2,1-3,0.6c-1.3-0.8-3.4-9.9-2.7-11.1c0.7-1.2,4,0,5.3,1.3
		S114,269.2,113.1,270.5z M137.5,292.8c-0.5,1.5-1.8,1.7-2.7,1.4c-1.5-0.4-6.1-8.5-5.8-9.9c0.4-1.4,3.8-1.1,5.5-0.3
		S138,291.3,137.5,292.8z M160.3,304.7c-1.3,1.1-9.4-1.3-14.1-8.4c-4.7-7.2,0.8-15.7,1.6-16.6c0.8-0.9,3.9-1.1,5.1,0.5
		c1.2,1.7,1.1,7.1,2.8,11.5c1.7,4.4,5.2,9.3,5.5,10.5C161.4,303.4,161,304.1,160.3,304.7z M200.6,314.5c-1.4,0.5-9.9-3.4-10.4-4.8
		c-0.5-1.3,2.5-3.1,4.3-3.4c1.8-0.2,7.1,3.9,7.5,5.4C202.4,313.3,201.4,314.2,200.6,314.5z M220.4,312.6c-1.3,0.7-10.4-1.7-11.1-2.9
		c-0.7-1.2,1.9-3.5,3.7-4.1c1.8-0.6,7.6,2.6,8.3,4C222,311.1,221.2,312.2,220.4,312.6z M239.7,307.3c-1.2,1-10.5,0.2-11.4-0.9
		s1.3-3.8,2.9-4.6c1.6-0.9,8,1.3,8.9,2.5C241,305.6,240.4,306.7,239.7,307.3z M269.3,291c-0.8,1.3-10,3.2-11.2,2.5
		c-1.2-0.8,0.1-4,1.4-5.3c1.3-1.3,8-1.1,9.3-0.2C270,288.9,269.8,290.2,269.3,291z M274.9,280.8c-8.3,2.2-14.7-5.6-15.3-6.6
		c-0.6-1,0.1-4.1,2.1-4.7c1.9-0.6,7.1,1.1,11.8,0.9c4.7-0.2,10.5-2.1,11.7-2s1.8,0.7,2.1,1.6C287.9,271.5,283.1,278.5,274.9,280.8z
		 M288.8,258.5c-1.3,2-7.5,3.6-10.6,4.2c0,0,0,0,0,0c-0.4,0.1-0.8,0.1-1.2,0.2c-0.3,0.1-0.5,0.1-0.5,0.1l0,0
		c-8.2,1.1-17.7-0.2-22.6-4.5c-2.2-2.1-5.4-2.9-8.5-1.9c-4.5,1.5-7,6.3-5.5,10.8c0.8,2.5,2.7,4.4,5,5.3c7.4,3.8,7.7,9.5,6.9,13.2
		c-15.3,9.3-33.2,14.7-52.4,14.7c-6,0-11.8-0.5-17.5-1.5c-3.7,1.8-8.8,4-10.3,3.6c-2.2-0.6-5.3-5.4-7-8.3c0,0-0.1,0-0.1,0
		c-0.3-0.6-0.6-1.1-0.9-1.7c-0.1-0.2-0.2-0.3-0.2-0.3l0,0c-3.6-7.4-5.3-16.9-2.7-22.8c1.3-2.7,1.1-6.1-0.8-8.7
		c-2.8-3.8-8.1-4.7-12-1.9c-2.1,1.6-3.4,3.9-3.5,6.4c-1.4,8.5-7.2,10.4-10.9,10.7c-18.1-15.7-30.6-37.8-33.9-62.8
		c-2.8-2.9-6.2-6.9-6.3-8.4c-0.1-2.2,3.3-6.5,5.5-9c0,0,0-0.1,0-0.1c0.5-0.5,0.9-1,1.4-1.5c0.2-0.2,0.3-0.4,0.3-0.4l0,0
		c6-5.7,14.4-10.3,20.9-9.7c3,0.4,6.1-0.9,8-3.5c2.8-3.8,1.9-9.2-1.9-12c-2.1-1.6-4.8-2-7.2-1.4c-8.7,1.4-12.2-3.7-13.6-7.2
		c9.6-22.5,27.2-40.7,49.1-51.2c2-3.6,4.7-8.3,6.1-8.9c2.1-0.8,7.5,1.3,10.5,2.6c0,0,0.1,0,0.1,0c0.6,0.3,1.2,0.6,1.8,0.9
		c0.1,0.1,0.2,0.1,0.2,0.1l0,0c7.3,3.9,14.2,10.6,15.6,16.9c0.6,3,2.7,5.5,5.8,6.5c4.5,1.5,9.3-1,10.8-5.5c0.8-2.5,0.4-5.1-0.9-7.2
		c-3.8-7.5-0.5-12.3,2.3-14.8c24.9,2.2,47.2,13.4,63.6,30.5c4.1,0.7,9.9,2,11,3.2c1.5,1.9,1,8.3,0.7,11.4c0,0,0,0,0,0
		c0,0.4-0.1,0.8-0.2,1.1c0,0.3-0.1,0.5-0.1,0.5l0,0c-1.4,8.1-5.7,16.8-11.2,20.1c-2.6,1.5-4.4,4.3-4.4,7.5c0,4.7,3.8,8.6,8.6,8.6
		c2.7,0,5-1.2,6.6-3.1c5.7-5.7,11.2-4.4,14.5-2.6c1.7,7.4,2.6,15.1,2.6,23c0,17-4.2,33-11.7,47C289.1,251.2,289.7,257.2,288.8,258.5
		z M301.2,243.1c-1.4,0.1-2.2-3.3-1.9-5.1c0.3-1.8,5.9-5.5,7.5-5.5c1.6,0.1,2.1,1.3,2.1,2.2C309,236.2,302.6,243,301.2,243.1z
		 M307.1,224.8c-1.4,0.3-2.7-2.9-2.7-4.7c0-1.9,4.9-6.5,6.4-6.7c1.5-0.2,2.3,0.9,2.5,1.8C313.6,216.7,308.5,224.5,307.1,224.8z
		 M309.8,205.8c-1.3,0.5-3.2-2.4-3.5-4.2c-0.3-1.8,3.7-7.2,5.2-7.7c1.5-0.5,2.4,0.5,2.8,1.3C314.8,196.7,311.1,205.3,309.8,205.8z"
		/>
	<g class="st1">
		<circle class="st4" cx="276.3" cy="174.2" r="4.7"/>
		<ellipse transform="matrix(0.309 -0.9511 0.9511 0.309 23.9848 271.5734)" class="st4" cx="198.9" cy="119.3" rx="4.7" ry="4.7"/>
		
			<ellipse transform="matrix(0.5878 -0.809 0.809 0.5878 -91.7387 171.8474)" class="st4" cx="122.8" cy="175.9" rx="4.7" ry="4.7"/>
		
			<ellipse transform="matrix(0.809 -0.5878 0.5878 0.809 -127.0187 140.7846)" class="st4" cx="153.1" cy="265.9" rx="4.7" ry="4.7"/>
		<ellipse transform="matrix(0.9511 -0.309 0.309 0.9511 -69.6738 89.6025)" class="st4" cx="248" cy="264.8" rx="4.7" ry="4.7"/>
	</g>
</g>
</svg>
